<svg width="16" height="16" viewBox="0 0 16 16" fill="none" xmlns="http://www.w3.org/2000/svg">
    <path
        d="M6.73671 11.7896C7.85775 11.7894 8.94649 11.4141 9.82956 10.7235L12.606 13.4999L13.499 12.6069L10.7226 9.83043C11.4136 8.94727 11.7891 7.85829 11.7893 6.73696C11.7893 3.95106 9.52261 1.68433 6.73671 1.68433C3.95082 1.68433 1.68408 3.95106 1.68408 6.73696C1.68408 9.52285 3.95082 11.7896 6.73671 11.7896ZM6.73671 2.94748C8.82661 2.94748 10.5262 4.64706 10.5262 6.73696C10.5262 8.82685 8.82661 10.5264 6.73671 10.5264C4.64682 10.5264 2.94724 8.82685 2.94724 6.73696C2.94724 4.64706 4.64682 2.94748 6.73671 2.94748Z"
        fill="#EBF3FC" />
    <path
        d="M7.62829 5.84388C7.86766 6.08388 7.99966 6.40094 7.99966 6.73694H9.26282C9.26338 6.40499 9.19814 6.07624 9.07087 5.76966C8.9436 5.46309 8.75682 5.18478 8.52134 4.95083C7.56513 3.99588 5.90724 3.99588 4.95166 4.95083L5.84345 5.84515C6.32345 5.36641 7.15082 5.36767 7.62829 5.84388Z"
        fill="#EBF3FC" />
</svg>